REM DIRINDEX 1\2,1\3,1\4,1\5
REM DIRNAME folder01,folder02,folder03,folder04,folder05
TITLE ""
FILE "1800_094.mp3" MP3
  TRACK 01 AUDIO
    TITLE "2:cjc044_2557"
    INDEX 01 00:00:00
  TRACK 02 AUDIO
    TITLE "0:"
    INDEX 01 00:01:22
  TRACK 03 AUDIO
    TITLE "3:cjc044_2558"
    INDEX 01 00:02:02
  TRACK 04 AUDIO
    TITLE "0:"
    INDEX 01 00:03:15
  TRACK 05 AUDIO
    TITLE "4:cjc044_2559"
    INDEX 01 00:03:72
  TRACK 06 AUDIO
    TITLE "0:"
    INDEX 01 00:05:30
  TRACK 07 AUDIO
    TITLE "5:cjc044_2560"
    INDEX 01 00:06:08
  TRACK 08 AUDIO
    TITLE "0:"
    INDEX 01 00:09:22
  TRACK 09 AUDIO
    TITLE "2:cjc044_2561"
    INDEX 01 00:11:05
  TRACK 10 AUDIO
    TITLE "0:"
    INDEX 01 00:12:24
  TRACK 11 AUDIO
    TITLE "3:cjc044_2562"
    INDEX 01 00:13:08
  TRACK 12 AUDIO
    TITLE "0:"
    INDEX 01 00:13:73
  TRACK 13 AUDIO
    TITLE "4:cjc044_2563"
    INDEX 01 00:14:60
  TRACK 14 AUDIO
    TITLE "0:"
    INDEX 01 00:16:04
  TRACK 15 AUDIO
    TITLE "5:cjc044_2564"
    INDEX 01 00:16:63
  TRACK 16 AUDIO
    TITLE "0:"
    INDEX 01 00:20:55
  TRACK 17 AUDIO
    TITLE "2:cjc044_2565"
    INDEX 01 00:22:40
  TRACK 18 AUDIO
    TITLE "0:"
    INDEX 01 00:23:48
  TRACK 19 AUDIO
    TITLE "3:cjc044_2566"
    INDEX 01 00:24:29
  TRACK 20 AUDIO
    TITLE "0:"
    INDEX 01 00:26:01
  TRACK 21 AUDIO
    TITLE "4:cjc044_2567"
    INDEX 01 00:26:54
  TRACK 22 AUDIO
    TITLE "0:"
    INDEX 01 00:27:61
  TRACK 23 AUDIO
    TITLE "5:cjc044_2568"
    INDEX 01 00:28:37
  TRACK 24 AUDIO
    TITLE "0:"
    INDEX 01 00:31:49
  TRACK 25 AUDIO
    TITLE "2:cjc044_2569"
    INDEX 01 00:33:36
  TRACK 26 AUDIO
    TITLE "0:"
    INDEX 01 00:34:53
  TRACK 27 AUDIO
    TITLE "3:cjc044_2570"
    INDEX 01 00:35:35
  TRACK 28 AUDIO
    TITLE "0:"
    INDEX 01 00:36:40
  TRACK 29 AUDIO
    TITLE "4:cjc044_2571"
    INDEX 01 00:37:22
  TRACK 30 AUDIO
    TITLE "0:"
    INDEX 01 00:38:37
  TRACK 31 AUDIO
    TITLE "5:cjc044_2572"
    INDEX 01 00:39:09
  TRACK 32 AUDIO
    TITLE "0:"
    INDEX 01 00:42:25
  TRACK 33 AUDIO
    TITLE "2:cjc044_2573"
    INDEX 01 00:44:11
  TRACK 34 AUDIO
    TITLE "0:"
    INDEX 01 00:45:24
  TRACK 35 AUDIO
    TITLE "3:cjc044_2574"
    INDEX 01 00:46:13
  TRACK 36 AUDIO
    TITLE "0:"
    INDEX 01 00:47:60
  TRACK 37 AUDIO
    TITLE "4:cjc044_2575"
    INDEX 01 00:48:46
  TRACK 38 AUDIO
    TITLE "0:"
    INDEX 01 00:49:51
  TRACK 39 AUDIO
    TITLE "5:cjc044_2576"
    INDEX 01 00:50:27
  TRACK 40 AUDIO
    TITLE "0:"
    INDEX 01 00:54:19
  TRACK 41 AUDIO
    TITLE "2:cjc044_2577"
    INDEX 01 00:56:14
  TRACK 42 AUDIO
    TITLE "0:"
    INDEX 01 00:57:15
  TRACK 43 AUDIO
    TITLE "3:cjc044_2578"
    INDEX 01 00:58:03
  TRACK 44 AUDIO
    TITLE "0:"
    INDEX 01 00:59:04
  TRACK 45 AUDIO
    TITLE "4:cjc044_2579"
    INDEX 01 00:59:67
  TRACK 46 AUDIO
    TITLE "0:"
    INDEX 01 01:01:01
  TRACK 47 AUDIO
    TITLE "5:cjc044_2580"
    INDEX 01 01:01:50
  TRACK 48 AUDIO
    TITLE "0:"
    INDEX 01 01:05:01
  TRACK 49 AUDIO
    TITLE "2:cjc044_2581"
    INDEX 01 01:06:61
  TRACK 50 AUDIO
    TITLE "0:"
    INDEX 01 01:08:19
  TRACK 51 AUDIO
    TITLE "3:cjc044_2582"
    INDEX 01 01:09:05
  TRACK 52 AUDIO
    TITLE "0:"
    INDEX 01 01:10:37
  TRACK 53 AUDIO
    TITLE "4:cjc044_2583"
    INDEX 01 01:11:17
  TRACK 54 AUDIO
    TITLE "0:"
    INDEX 01 01:12:48
  TRACK 55 AUDIO
    TITLE "5:cjc044_2584"
    INDEX 01 01:13:34
  TRACK 56 AUDIO
    TITLE "0:"
    INDEX 01 01:16:48
  TRACK 57 AUDIO
    TITLE "2:cjc044_2585"
    INDEX 01 01:18:39
  TRACK 58 AUDIO
    TITLE "0:"
    INDEX 01 01:19:46
  TRACK 59 AUDIO
    TITLE "3:cjc044_2586"
    INDEX 01 01:20:40
  TRACK 60 AUDIO
    TITLE "0:"
    INDEX 01 01:21:61
  TRACK 61 AUDIO
    TITLE "4:cjc044_2587"
    INDEX 01 01:22:54
  TRACK 62 AUDIO
    TITLE "0:"
    INDEX 01 01:23:65
  TRACK 63 AUDIO
    TITLE "5:cjc044_2588"
    INDEX 01 01:24:36
  TRACK 64 AUDIO
    TITLE "0:"
    INDEX 01 01:27:61
